<svg xmlns="http://www.w3.org/2000/svg" viewBox="0 0 24 24" fill="none">
  <path d="M12 2L2 6.5V17.5L12 22L22 17.5V6.5L12 2Z" fill="#00599C"/>
  <path d="M12 4.1L4 7.7V16.3L12 19.9L20 16.3V7.7L12 4.1Z" fill="#0079C1"/>
  <path d="M9.8 8.8C8.2 8.8 6.9 10 6.9 12C6.9 14 8.2 15.2 9.8 15.2C10.6 15.2 11.2 15 11.7 14.5L10.9 13.6C10.6 13.9 10.2 14 9.8 14C8.8 14 8.1 13.3 8.1 12C8.1 10.7 8.8 10 9.8 10C10.2 10 10.6 10.1 10.9 10.4L11.7 9.5C11.2 9 10.6 8.8 9.8 8.8ZM14.8 9.7V11.2H13.3V12H14.8V13.5H15.6V12H17.1V11.2H15.6V9.7H14.8ZM18.8 9.7V11.2H17.3V12H18.8V13.5H19.6V12H21.1V11.2H19.6V9.7H18.8Z" fill="white"/>
</svg>